<?xml version="1.0" encoding="UTF-8"?>
<svg width="1024px" height="1024px" viewBox="0 0 1024 1024" version="1.1" xmlns="http://www.w3.org/2000/svg" xmlns:xlink="http://www.w3.org/1999/xlink">
    <title>layer-2</title>
    <g id="Icon" stroke="none" stroke-width="1" fill="none" fill-rule="evenodd">
        <g id="layer-2" transform="translate(208, 179.8249)">
            <g id="Frame-Copy" transform="translate(-208, -179.8249)"></g>
            <path d="M304,28.1751442 C471.894564,28.1751442 608,164.28058 608,332.175144 C608,500.069708 471.894564,636.175144 304,636.175144 C136.105436,636.175144 0,500.069708 0,332.175144 C0,164.28058 136.105436,28.1751442 304,28.1751442 Z M304,92.1751442 C171.45166,92.1751442 64,199.626804 64,332.175144 C64,464.723484 171.45166,572.175144 304,572.175144 C436.54834,572.175144 544,464.723484 544,332.175144 C544,277.310279 525.590026,226.745293 494.610576,186.320686 L326.181981,354.747998 C313.685203,367.244775 293.423924,367.244775 280.927147,354.747998 C268.430369,342.25122 268.430369,321.989941 280.927147,309.493164 L449.288051,141.131829 C408.957984,110.413753 358.608919,92.1751442 304,92.1751442 Z" id="Combined-Shape" fill="color(display-p3 0.000 0.000 0.000)" fill-rule="nonzero"></path>
        </g>
    </g>
</svg>