<svg width="124" height="43" viewBox="0 0 124 43" fill="none" xmlns="http://www.w3.org/2000/svg">
<path d="M0.539062 34V0.179688H10.4766V13.0469H22.3828V0.179688H32.3203V34H22.3828V20.9219H10.4766V34H0.539062Z" fill="black"/>
<path d="M45.2344 34.5625C39.5391 34.5625 36.3516 30.9531 36.3516 24.7422V8.125H45.9609V22.6328C45.9609 25.2344 47.1797 26.8281 49.5938 26.8281C51.8672 26.8281 53.25 25.0703 53.25 22.6562V8.125H62.8594V34H53.25V29.1953H53.0625C51.7969 32.6875 49.1484 34.5625 45.2344 34.5625Z" fill="black"/>
<path d="M79.6172 42.7656C71.8125 42.7656 66.8906 39.3906 66.3984 34.9141L66.375 34.7031H75.6094L75.6562 34.8203C75.9609 35.5469 77.2734 36.625 79.6875 36.625C82.4531 36.625 83.7891 35.3359 83.7891 33.5078V28.9141H83.6016C82.4062 31.4922 79.5938 33.0625 75.8438 33.0625C69.3984 33.0625 65.8125 28.6328 65.8125 20.6641V20.6406C65.8125 12.1797 69.4453 7.5625 75.9609 7.5625C79.6172 7.5625 82.3594 9.4375 83.5781 12.6016H83.7891V8.125H93.3984V33.2734C93.3984 38.8281 88.1016 42.7656 79.6172 42.7656ZM79.6875 26.6406C82.2188 26.6406 83.8359 24.5781 83.8359 20.9922V20.9688C83.8359 17.3594 82.1953 15.2969 79.6875 15.2969C77.2031 15.2969 75.5625 17.3594 75.5625 20.9453V20.9688C75.5625 24.5078 77.1797 26.6406 79.6875 26.6406Z" fill="black"/>
<path d="M110.016 34.5625C101.531 34.5625 96.4219 29.6875 96.4219 21.0859V21.0391C96.4219 12.6016 101.719 7.5625 110.016 7.5625C118.336 7.5625 123.633 12.5312 123.633 21.0391V21.0859C123.633 29.7109 118.477 34.5625 110.016 34.5625ZM110.039 27.4375C112.43 27.4375 113.883 25.1641 113.883 21.0859V21.0391C113.883 17.0312 112.359 14.6875 110.016 14.6875C107.648 14.6875 106.172 17.0312 106.172 21.0391V21.0859C106.172 25.1875 107.602 27.4375 110.039 27.4375Z" fill="black"/>
</svg>
